<svg width="727" height="350" viewBox="0 0 727 350" fill="none" xmlns="http://www.w3.org/2000/svg">
<g clip-path="url(#clip0_31_131)">
<path d="M610.54 140.305L532.637 251.28H571.295L629.355 167.35L687.562 251.28H727.689L650.96 140.305L578.791 36.0903H538.369L610.54 140.305Z" fill="#1797C7"/>
<path d="M639.431 112.549L694.299 33.101L730.832 33.101L657.211 138.151L725.415 236.8L584.423 33.101L639.431 112.549Z" fill="#1797C7"/>
<path d="M414.817 61.3722H380.863V36.0903H530.644V61.3722H414.817Z" fill="#1797C7"/>
<path d="M532.26 225.999V251.281H380.863V123.989H414.817H515.798V149.859H414.817V225.999H532.26Z" fill="#1797C7"/>
<path d="M198.516 251.28V36.0903H263.337C286.66 36.0903 305.572 38.0012 320.075 41.8229C334.676 45.5466 345.357 51.72 352.118 60.3433C358.978 68.8686 362.407 80.4316 362.407 95.0324C362.407 111.593 359.076 124.577 352.412 133.984C345.749 143.391 334.872 150.006 319.781 153.828C304.788 157.649 284.749 159.56 259.663 159.56H232.47V251.28H198.516ZM232.47 133.543H264.513C279.604 133.543 291.755 132.71 300.966 131.044C310.276 129.379 317.037 125.9 321.251 120.608C325.562 115.219 327.718 107.085 327.718 96.2083C327.718 85.1353 325.121 77.1979 319.928 72.3963C314.832 67.5947 307.336 64.606 297.439 63.4301C287.639 62.2542 275.684 61.6662 261.574 61.6662H232.47V133.543Z" fill="#1797C7"/>
<path d="M-0.00012207 251.28L66.4383 36.0903H115.826L183.735 251.28H148.017L130.231 196.013H50.7107L33.9541 251.28H-0.00012207ZM50.7107 196.013H129.244L90.3973 58.2855L50.7107 196.013Z" fill="#1797C7"/>
<path d="M247.926 332V289.109H260.846C265.494 289.109 269.264 289.49 272.154 290.252C275.064 290.994 277.193 292.225 278.541 293.943C279.908 295.643 280.592 297.947 280.592 300.857C280.592 304.158 279.928 306.746 278.6 308.621C277.271 310.496 275.104 311.814 272.096 312.576C269.107 313.338 265.113 313.719 260.113 313.719H254.693V332H247.926ZM254.693 308.533H261.08C264.088 308.533 266.51 308.367 268.346 308.035C270.201 307.703 271.549 307.01 272.389 305.955C273.248 304.881 273.678 303.26 273.678 301.092C273.678 298.885 273.16 297.303 272.125 296.346C271.109 295.389 269.615 294.793 267.643 294.559C265.689 294.324 263.307 294.207 260.494 294.207H254.693V308.533ZM289.67 332V289.109H306.78C312.444 289.109 316.516 290.057 318.996 291.951C321.477 293.826 322.717 296.688 322.717 300.535C322.717 303.426 321.897 305.867 320.256 307.859C318.616 309.852 316.37 311.141 313.518 311.727L323.772 332H316.477L306.75 312.664H296.438V332H289.67ZM296.438 307.566H305.579C307.668 307.566 309.475 307.381 310.998 307.01C312.541 306.619 313.723 305.916 314.543 304.9C315.383 303.885 315.803 302.449 315.803 300.594C315.803 299.285 315.598 298.221 315.188 297.4C314.778 296.561 314.172 295.916 313.371 295.467C312.571 294.998 311.594 294.676 310.442 294.5C309.289 294.305 307.981 294.207 306.516 294.207H296.438V307.566ZM351.249 332.703C347.401 332.703 344.042 331.99 341.171 330.564C338.3 329.119 336.063 326.766 334.462 323.504C332.88 320.242 332.089 315.848 332.089 310.32C332.089 304.91 332.889 300.604 334.491 297.4C336.112 294.197 338.358 291.902 341.229 290.516C344.12 289.109 347.47 288.406 351.278 288.406C355.106 288.406 358.466 289.109 361.356 290.516C364.247 291.902 366.503 294.197 368.124 297.4C369.745 300.604 370.555 304.9 370.555 310.291C370.555 315.76 369.764 320.135 368.182 323.416C366.6 326.678 364.364 329.041 361.473 330.506C358.602 331.971 355.194 332.703 351.249 332.703ZM351.278 327.342C354.384 327.342 356.815 326.746 358.573 325.555C360.35 324.344 361.6 322.488 362.323 319.988C363.065 317.469 363.436 314.256 363.436 310.35C363.436 306.912 363.085 303.963 362.382 301.502C361.698 299.021 360.477 297.117 358.72 295.789C356.962 294.461 354.481 293.797 351.278 293.797C348.095 293.797 345.634 294.471 343.895 295.818C342.157 297.146 340.946 299.051 340.262 301.531C339.579 303.992 339.237 306.922 339.237 310.32C339.237 314.168 339.608 317.352 340.35 319.871C341.093 322.391 342.343 324.266 344.1 325.496C345.858 326.727 348.251 327.342 351.278 327.342ZM381.421 332V289.109H394.341C398.989 289.109 402.759 289.49 405.65 290.252C408.56 290.994 410.689 292.225 412.036 293.943C413.404 295.643 414.087 297.947 414.087 300.857C414.087 304.158 413.423 306.746 412.095 308.621C410.767 310.496 408.599 311.814 405.591 312.576C402.603 313.338 398.609 313.719 393.609 313.719H388.189V332H381.421ZM388.189 308.533H394.575C397.583 308.533 400.005 308.367 401.841 308.035C403.696 307.703 405.044 307.01 405.884 305.955C406.743 304.881 407.173 303.26 407.173 301.092C407.173 298.885 406.655 297.303 405.62 296.346C404.605 295.389 403.111 294.793 401.138 294.559C399.185 294.324 396.802 294.207 393.989 294.207H388.189V308.533ZM423.166 332V289.109H453.019V294.148H429.933V306.629H450.06V311.785H429.933V326.961H453.341V332H423.166ZM462.918 332V289.109H480.027C485.691 289.109 489.764 290.057 492.244 291.951C494.725 293.826 495.965 296.688 495.965 300.535C495.965 303.426 495.145 305.867 493.504 307.859C491.863 309.852 489.617 311.141 486.766 311.727L497.02 332H489.725L479.998 312.664H469.686V332H462.918ZM469.686 307.566H478.826C480.916 307.566 482.723 307.381 484.246 307.01C485.789 306.619 486.971 305.916 487.791 304.9C488.631 303.885 489.051 302.449 489.051 300.594C489.051 299.285 488.846 298.221 488.436 297.4C488.025 296.561 487.42 295.916 486.619 295.467C485.818 294.998 484.842 294.676 483.689 294.5C482.537 294.305 481.229 294.207 479.764 294.207H469.686V307.566ZM515.414 332V294.148H502.289V289.109H534.545V294.148H522.182V332H515.414ZM553.087 332V315.916L538.38 289.109H545.645L556.485 309.822L567.12 289.109H574.356L559.796 315.945V332H553.087ZM599.427 332V289.109H606.195V307.244H629.193V289.109H635.961V332H629.193V312.635H606.195V332H599.427ZM663.789 332.703C658.32 332.703 654.121 331.326 651.191 328.572C648.281 325.818 646.826 321.346 646.826 315.154V289.109H653.594V314.363C653.594 317.176 653.867 319.549 654.414 321.482C654.98 323.416 656.006 324.881 657.49 325.877C658.994 326.854 661.152 327.342 663.965 327.342C666.758 327.342 668.896 326.863 670.381 325.906C671.885 324.93 672.91 323.484 673.457 321.57C674.023 319.637 674.307 317.234 674.307 314.363V289.109H681.074V314.949C681.074 321.102 679.609 325.604 676.68 328.455C673.77 331.287 669.473 332.703 663.789 332.703ZM691.998 332V289.109H705.534C707.741 289.109 709.909 289.236 712.038 289.49C714.166 289.725 716.08 290.203 717.78 290.926C719.498 291.629 720.866 292.674 721.881 294.061C722.916 295.428 723.434 297.234 723.434 299.48C723.454 301.023 723.317 302.479 723.024 303.846C722.75 305.193 722.155 306.346 721.237 307.303C720.338 308.24 718.952 308.885 717.077 309.236C719.147 309.549 720.739 310.203 721.852 311.199C722.985 312.176 723.766 313.416 724.196 314.92C724.645 316.404 724.87 318.064 724.87 319.9C724.87 323.104 724.098 325.584 722.555 327.342C721.032 329.08 718.756 330.291 715.729 330.975C712.702 331.658 708.952 332 704.479 332H691.998ZM698.766 326.961H705.123C706.745 326.961 708.327 326.912 709.87 326.814C711.413 326.717 712.809 326.453 714.059 326.023C715.309 325.594 716.295 324.881 717.018 323.885C717.76 322.889 718.131 321.492 718.131 319.695C718.131 317.293 717.721 315.535 716.901 314.422C716.1 313.289 714.86 312.557 713.18 312.225C711.52 311.893 709.391 311.727 706.793 311.727H698.766V326.961ZM698.766 306.805H707.116C710.123 306.805 712.35 306.6 713.795 306.189C715.26 305.76 716.198 305.008 716.608 303.934C717.018 302.84 717.155 301.297 717.018 299.305C716.92 297.977 716.598 296.961 716.051 296.258C715.524 295.535 714.782 295.027 713.825 294.734C712.868 294.441 711.705 294.275 710.338 294.236C708.991 294.178 707.457 294.148 705.739 294.148H698.766V306.805Z" fill="#00AF94"/>
<path d="M90.2314 159L134 251H48L90.2314 159Z" fill="#00AF94"/>
</g>
<defs>
<clipPath id="clip0_31_131">
<rect width="727" height="350" fill="white"/>
</clipPath>
</defs>
</svg>
